# xmcd
#
# Track frame offsets:
#	150
#	12888
#	20673
#	23600
#	31061
#	42288
#	55742
#	75896
#	94575
#	111505
#	123518
#	131837
#	144432
#	161393
#	176742
#	184187
#	201122
#	221280
#	226359
#	244475
#	249114
#	258508
#	278982
#	291813
#	312246
#	320607
#	327134
#	333099
#
# Disc length: 4698 seconds
# Revision: 0
# Processed by: cddbd v1.5.2PL0 Copyright (c) Steve Scherf et al.
# Submitted via: dBpowerAMP V12.0
#
DISCID=8212581c
DTITLE=17.4.1944 - 6.6.1944 - Tagebuch CD7
DYEAR=1900
DGENRE=
TTITLE0=157
TTITLE1=158
TTITLE2=159
TTITLE3=160
TTITLE4=161
TTITLE5=162
TTITLE6=163
TTITLE7=164
TTITLE8=165
TTITLE9=166
TTITLE10=167
TTITLE11=168
TTITLE12=169
TTITLE13=170
TTITLE14=171
TTITLE15=172
TTITLE16=173
TTITLE17=174
TTITLE18=175
TTITLE19=176
TTITLE20=177
TTITLE21=178
TTITLE22=179
TTITLE23=180
TTITLE24=181
TTITLE25=182
TTITLE26=183
TTITLE27=184
EXTD=
EXTT0=
EXTT1=
EXTT2=
EXTT3=
EXTT4=
EXTT5=
EXTT6=
EXTT7=
EXTT8=
EXTT9=
EXTT10=
EXTT11=
EXTT12=
EXTT13=
EXTT14=
EXTT15=
EXTT16=
EXTT17=
EXTT18=
EXTT19=
EXTT20=
EXTT21=
EXTT22=
EXTT23=
EXTT24=
EXTT25=
EXTT26=
EXTT27=
PLAYORDER=
